<?xml version="1.0" standalone="no"?>
<!DOCTYPE svg PUBLIC "-//W3C//DTD SVG 20010904//EN"
 "http://www.w3.org/TR/2001/REC-SVG-20010904/DTD/svg10.dtd">
<svg version="1.0" xmlns="http://www.w3.org/2000/svg"
 width="273.000000pt" height="190.000000pt" viewBox="0 0 273.000000 190.000000"
 preserveAspectRatio="xMidYMid meet">

<g transform="translate(0.000000,190.000000) scale(0.100000,-0.100000)"
fill="#000000" stroke="none">
<path d="M1100 1805 c-339 -46 -615 -169 -806 -359 -157 -157 -224 -305 -224
-501 0 -143 38 -259 128 -384 216 -304 635 -493 1125 -508 300 -10 558 42 797
161 339 169 520 413 520 702 0 113 -12 178 -47 258 -121 275 -420 493 -811
591 -213 53 -470 68 -682 40z m510 -35 c134 -23 301 -66 315 -82 7 -8 4 -9
-10 -4 -214 77 -524 113 -752 87 -345 -40 -627 -162 -817 -354 -136 -138 -195
-263 -204 -430 -7 -145 24 -259 105 -386 128 -200 410 -381 708 -455 197 -48
491 -62 690 -32 372 57 703 247 844 483 65 110 91 204 91 327 0 118 -13 176
-66 282 -95 189 -275 339 -554 462 -15 6 -19 11 -9 11 49 2 318 -155 417 -244
148 -134 252 -343 252 -509 0 -191 -111 -401 -285 -541 -170 -137 -367 -224
-620 -276 -152 -30 -426 -38 -580 -15 -334 49 -615 174 -806 357 -171 164
-262 394 -229 579 44 256 226 466 526 610 137 66 282 108 504 143 14 2 102 5
195 6 128 1 198 -4 285 -19z m-128 -10 c361 -33 675 -165 878 -369 310 -311
278 -711 -81 -1006 -137 -113 -391 -216 -632 -255 -118 -19 -163 -22 -310 -17
-194 5 -303 22 -462 72 -421 131 -702 417 -722 735 -17 266 160 521 471 680
155 79 332 131 516 154 149 18 204 19 342 6z"/>
<path d="M1257 1724 c-4 -4 -7 -38 -7 -76 0 -61 2 -68 20 -68 14 0 20 7 21 23
l0 22 16 -22 c8 -13 24 -23 34 -23 19 0 19 2 4 31 -12 23 -13 34 -5 44 6 8 10
26 8 42 -3 25 -7 28 -43 31 -23 2 -44 0 -48 -4z m63 -39 c0 -8 -7 -15 -15 -15
-8 0 -15 7 -15 15 0 8 7 15 15 15 8 0 15 -7 15 -15z"/>
<path d="M1380 1655 c0 -59 3 -75 14 -75 9 0 16 13 18 33 l4 32 12 -27 c12
-28 42 -30 42 -3 0 8 5 17 11 21 8 5 10 0 6 -17 -7 -28 6 -55 22 -45 15 9 15
156 0 156 -6 0 -18 -18 -27 -40 -20 -47 -34 -47 -46 3 -8 29 -14 37 -33 37
-22 0 -23 -3 -23 -75z"/>
<path d="M1120 1701 c-15 -29 -12 -83 6 -109 20 -29 69 -30 84 -2 13 25 3 88
-18 113 -20 23 -59 22 -72 -2z m64 -33 c9 -35 7 -66 -4 -73 -20 -12 -40 17
-40 56 0 32 4 39 19 39 11 0 21 -9 25 -22z"/>
<path d="M1587 1673 c-13 -21 -32 -53 -41 -70 -16 -33 -16 -33 7 -33 13 0 28
5 34 11 8 8 14 5 22 -10 7 -12 18 -21 27 -21 23 0 16 153 -8 158 -11 2 -26
-11 -41 -35z m20 -55 c-3 -8 -6 -5 -6 6 -1 11 2 17 5 13 3 -3 4 -12 1 -19z"/>
<path d="M1040 1673 l0 -26 -23 21 c-49 46 -55 27 -23 -81 11 -38 32 -48 30
-14 -1 21 9 22 26 2 18 -22 53 -20 47 3 -3 9 -11 41 -17 70 -13 56 -40 73 -40
25z"/>
<path d="M1690 1619 c-12 -39 -20 -72 -18 -74 10 -10 72 -8 75 3 3 6 -2 12
-11 12 -24 0 -27 15 -11 60 19 53 19 70 0 70 -9 0 -22 -25 -35 -71z"/>
<path d="M833 1648 c-36 -12 -44 -28 -14 -28 13 0 25 -16 41 -55 12 -30 29
-55 36 -55 19 0 17 17 -7 69 -13 31 -16 48 -9 55 26 26 8 31 -47 14z"/>
<path d="M1861 1589 c-37 -60 -38 -72 -8 -91 28 -19 57 -9 80 26 9 14 24 37
32 50 13 20 14 25 1 35 -12 10 -20 2 -48 -43 -18 -31 -36 -56 -40 -56 -15 0
-8 32 17 74 23 39 24 56 5 56 -4 0 -21 -23 -39 -51z"/>
<path d="M719 1601 c-31 -26 -17 -52 36 -67 45 -12 57 -31 23 -36 -34 -5 -23
-23 13 -23 38 0 60 26 43 52 -6 9 -28 21 -49 27 -43 12 -59 36 -25 36 13 0 20
5 18 13 -7 20 -33 19 -59 -2z"/>
<path d="M1976 1529 c-36 -47 -45 -64 -35 -70 8 -5 20 -2 30 7 22 19 32 18 26
-5 -2 -10 -1 -24 3 -31 5 -8 25 9 60 50 39 48 48 65 38 71 -9 6 -20 1 -34 -16
-24 -31 -35 -24 -24 15 8 27 5 40 -10 40 -4 0 -28 -28 -54 -61z"/>
<path d="M595 1540 c-9 -15 58 -135 75 -135 8 0 15 9 15 20 0 15 7 20 28 21
26 1 45 10 36 18 -13 12 -133 86 -140 86 -4 0 -11 -4 -14 -10z m75 -66 c0 -8
-5 -12 -10 -9 -6 4 -8 11 -5 16 9 14 15 11 15 -7z"/>
<path d="M1180 1540 c-323 -39 -593 -197 -696 -405 -33 -67 -38 -88 -42 -165
-5 -105 17 -184 75 -270 79 -118 169 -191 324 -265 177 -83 385 -122 599 -111
409 20 737 211 822 479 31 98 22 213 -26 310 -111 224 -381 382 -731 427 -79
10 -243 10 -325 0z m390 -35 c236 -40 482 -167 580 -300 158 -214 140 -426
-51 -613 -171 -168 -507 -266 -824 -241 -237 19 -435 90 -599 213 -83 63 -134
126 -178 222 -28 61 -32 80 -32 160 -1 87 1 94 41 175 24 48 63 106 90 135
140 146 389 246 663 267 69 5 227 -4 310 -18z"/>
<path d="M1320 1424 c-74 -91 -223 -204 -329 -250 l-61 -27 0 -71 0 -72 103
-16 c104 -15 234 -60 289 -99 l29 -21 49 26 c101 55 180 78 288 83 l102 6 0
77 c0 78 0 78 -30 88 -89 31 -272 177 -339 271 -25 33 -47 61 -50 61 -3 0 -26
-25 -51 -56z m95 -56 c57 -73 147 -148 243 -203 l83 -48 -3 -51 -3 -51 -60 -6
c-88 -9 -209 -45 -287 -85 -29 -15 -33 -14 -107 19 -100 46 -156 64 -232 76
-34 6 -66 15 -69 21 -6 10 -6 49 -1 82 0 4 25 19 54 34 100 50 217 135 274
199 31 36 59 65 62 65 3 -1 24 -24 46 -52z"/>
<path d="M1342 1175 c-9 -19 -19 -25 -44 -25 l-31 0 22 -24 c17 -18 20 -30 15
-51 l-7 -27 27 17 c26 17 29 17 62 2 l34 -17 -6 26 c-5 18 0 32 17 50 l22 24
-31 0 c-25 0 -35 6 -44 25 -6 14 -14 25 -18 25 -4 0 -12 -11 -18 -25z"/>
<path d="M848 888 c2 -46 5 -89 7 -95 3 -7 20 -13 39 -13 33 0 35 -2 41 -42 8
-56 34 -137 53 -168 44 -71 129 -135 217 -162 111 -35 261 -26 362 22 112 52
184 147 205 271 l12 69 37 0 37 0 6 58 c4 31 9 74 12 95 l6 37 -47 0 c-153 0
-338 -41 -432 -96 l-42 -24 -63 34 c-102 56 -276 96 -413 96 l-40 0 3 -82z
m498 -94 l6 -23 22 26 c30 34 52 26 54 -21 1 -35 -14 -58 -27 -38 -9 15 -43
18 -67 5 -23 -13 -64 -7 -64 9 0 6 9 8 20 5 11 -3 23 -1 26 4 3 5 -4 9 -14 9
-11 0 -25 6 -31 14 -10 11 -8 17 9 29 28 19 59 11 66 -19z m-109 -14 c-7 -68
-21 -69 -31 -2 -6 38 -4 42 14 42 18 0 21 -5 17 -40z m273 29 c0 -6 -7 -9 -15
-6 -8 4 -17 2 -20 -3 -4 -6 5 -10 19 -10 21 0 26 -5 26 -26 0 -23 -3 -25 -37
-22 -31 2 -39 7 -41 26 -2 13 2 30 8 38 15 16 60 19 60 3z m-390 -60 c42 -11
112 -39 155 -63 l79 -43 86 43 c121 60 275 97 275 65 0 -10 -22 -18 -72 -27
-90 -15 -153 -36 -222 -74 -30 -17 -58 -30 -63 -30 -5 0 -50 20 -101 44 -52
26 -128 52 -174 62 -54 11 -83 22 -83 31 0 18 31 16 120 -8z m6 -60 c38 -11
106 -40 151 -64 l82 -43 90 49 c97 55 241 93 262 72 19 -19 1 -30 -58 -38 -97
-11 -145 -26 -225 -69 l-77 -41 -103 53 c-57 28 -123 56 -148 61 -25 6 -57 12
-72 16 -16 3 -28 10 -28 15 0 16 53 11 126 -11z m5 -59 c35 -11 99 -39 143
-63 l78 -43 82 42 c116 60 266 99 266 69 0 -15 -3 -16 -113 -36 -44 -8 -99
-29 -155 -59 l-86 -47 -77 48 c-86 52 -119 65 -198 76 -30 5 -56 14 -59 21 -6
18 46 15 119 -8z m36 -67 c38 -14 93 -43 124 -63 l56 -36 89 48 c49 26 111 52
139 58 27 6 60 13 72 16 66 17 -29 -89 -115 -129 -40 -18 -65 -21 -172 -21
-154 0 -215 20 -279 89 -23 25 -41 49 -41 55 0 18 58 11 127 -17z"/>
<path d="M1292 799 c2 -6 8 -10 13 -10 5 0 11 4 13 10 2 6 -4 11 -13 11 -9 0
-15 -5 -13 -11z"/>
<path d="M1380 779 c0 -5 5 -7 10 -4 6 3 10 8 10 11 0 2 -4 4 -10 4 -5 0 -10
-5 -10 -11z"/>
<path d="M1470 760 c0 -5 5 -10 10 -10 6 0 10 5 10 10 0 6 -4 10 -10 10 -5 0
-10 -4 -10 -10z"/>
<path d="M2090 1464 c-39 -41 -50 -58 -41 -67 8 -8 25 3 66 43 30 30 55 60 55
67 0 27 -29 11 -80 -43z"/>
<path d="M502 1477 l-22 -23 58 -57 58 -57 24 25 c25 27 21 47 -5 25 -22 -18
-55 11 -37 33 15 18 3 30 -15 16 -20 -17 -48 8 -32 28 22 26 -5 35 -29 10z"/>
<path d="M2150 1419 c-58 -82 -43 -92 48 -33 40 26 72 51 72 55 0 15 -16 10
-44 -12 -31 -25 -47 -18 -23 9 20 22 22 42 3 42 -7 0 -32 -27 -56 -61z"/>
<path d="M427 1413 c-4 -3 3 -17 15 -30 27 -29 17 -41 -18 -18 -16 10 -30 13
-35 8 -6 -6 16 -30 58 -61 48 -38 69 -48 75 -39 5 7 -2 20 -18 33 -18 15 -22
24 -14 29 6 4 19 0 29 -9 19 -17 51 -22 51 -7 0 4 -14 19 -32 32 -17 13 -44
34 -59 47 -28 23 -41 27 -52 15z"/>
<path d="M2248 1355 c-38 -25 -68 -49 -68 -53 0 -5 6 -16 13 -27 15 -19 39
-13 31 9 -3 7 2 19 11 26 12 10 18 10 30 0 15 -12 17 -10 19 20 1 11 11 14 34
12 36 -2 40 6 15 37 l-18 21 -67 -45z"/>
<path d="M326 1289 c-13 -23 -15 -34 -7 -42 8 -8 14 -8 22 0 9 9 22 7 51 -8
67 -34 86 -39 91 -24 4 8 -15 23 -54 41 -39 19 -59 34 -59 46 0 28 -24 21 -44
-13z"/>
<path d="M2303 1273 c-46 -24 -69 -41 -66 -50 3 -8 14 -11 30 -7 25 7 25 6 9
-19 -26 -39 0 -46 31 -8 19 23 31 29 47 25 14 -3 31 2 47 15 23 19 23 20 7 48
-9 15 -20 29 -25 30 -4 1 -40 -14 -80 -34z m77 -13 c0 -12 -28 -25 -36 -17 -9
9 6 27 22 27 8 0 14 -5 14 -10z"/>
<path d="M276 1191 c-30 -34 -16 -52 58 -78 72 -25 118 -24 84 1 -24 17 -23
24 4 28 39 6 33 28 -7 28 -22 0 -47 8 -62 20 -32 25 -55 25 -77 1z m62 -29 c3
-9 -2 -13 -14 -10 -9 1 -19 9 -22 16 -3 9 2 13 14 10 9 -1 19 -9 22 -16z"/>
<path d="M2400 1167 c-8 -7 -23 -24 -33 -39 -20 -32 -42 -37 -34 -8 7 26 -11
36 -30 17 -17 -17 -10 -52 13 -61 28 -11 59 4 82 39 25 39 42 45 42 15 0 -26
27 -26 35 0 13 41 -39 66 -75 37z"/>
<path d="M242 1077 c-29 -13 -28 -43 2 -62 35 -23 135 -25 149 -3 9 14 8 22
-8 37 -25 24 -114 41 -143 28z m81 -23 c45 -8 51 -34 8 -34 -37 0 -81 16 -81
30 0 11 19 12 73 4z"/>
<path d="M2382 1058 c-40 -6 -62 -14 -59 -21 8 -22 177 1 177 23 0 12 -32 11
-118 -2z"/>
<path d="M2477 1016 c-3 -8 -28 -17 -64 -21 -65 -7 -89 -17 -79 -33 3 -6 23
-6 53 0 27 5 68 6 92 3 42 -6 44 -6 38 17 -4 13 -7 29 -7 36 0 17 -27 15 -33
-2z"/>
<path d="M200 967 c0 -9 11 -17 28 -20 l27 -3 -32 -13 c-60 -24 -44 -32 90
-46 47 -5 57 -4 57 9 0 8 -11 16 -27 19 l-28 4 33 8 c50 12 40 32 -20 39 -29
4 -70 9 -90 12 -30 5 -38 2 -38 -9z"/>
<path d="M2480 918 c-14 -6 -49 -14 -79 -17 -68 -8 -82 -31 -18 -31 24 0 65
-6 90 -14 39 -12 47 -12 47 -1 0 8 -10 17 -22 21 l-23 7 23 10 c12 6 22 16 22
24 0 15 -6 16 -40 1z"/>
<path d="M365 659 c-11 -11 -26 -18 -35 -16 -8 3 -21 6 -29 8 -8 2 -17 -4 -19
-13 -3 -14 3 -18 23 -18 24 0 26 -2 15 -15 -19 -23 -4 -30 33 -17 19 7 44 12
56 12 19 0 21 3 12 13 -16 20 -2 28 33 21 28 -5 31 -3 31 20 0 25 -3 26 -50
25 -36 0 -56 -6 -70 -20z"/>
<path d="M2260 656 c0 -8 -14 -26 -30 -40 -29 -24 -30 -25 -10 -36 11 -6 20
-17 20 -25 0 -8 10 -19 21 -26 20 -10 21 -9 16 13 -4 14 -4 28 -1 31 7 7 35
-18 33 -30 -6 -34 36 -48 60 -19 16 19 3 77 -18 74 -11 -2 -15 3 -13 20 2 16
-2 22 -16 22 -11 0 -25 7 -32 15 -16 19 -30 19 -30 1z m42 -58 c-7 -7 -12 -8
-12 -2 0 14 12 26 19 19 2 -3 -1 -11 -7 -17z"/>
<path d="M380 565 c-9 -11 -10 -19 -2 -27 14 -14 32 -1 32 23 0 23 -13 25 -30
4z"/>
<path d="M640 395 c0 -7 -8 -12 -17 -11 -28 2 -21 -29 6 -32 14 -2 33 -15 44
-28 10 -13 28 -24 39 -24 17 0 18 2 8 15 -17 21 -7 29 18 16 29 -15 30 -15 28
22 -2 33 -7 35 -56 21 -21 -5 -23 -4 -12 7 19 20 15 25 -23 26 -22 1 -35 -4
-35 -12z"/>
<path d="M1945 393 c17 -40 17 -53 1 -59 -20 -8 -21 -24 -1 -24 8 0 15 -9 15
-20 0 -11 6 -20 13 -20 18 0 37 21 37 42 0 14 7 17 35 15 18 -1 33 3 32 8 -1
6 -17 9 -35 9 -24 -1 -32 2 -28 12 21 51 21 50 2 34 -16 -13 -20 -12 -31 3
-17 23 -50 23 -40 0z"/>
<path d="M1589 287 c-9 -12 -25 -21 -37 -20 -12 1 -22 -6 -25 -18 -3 -10 -1
-19 4 -19 5 0 8 -20 5 -45 -5 -52 9 -68 33 -36 11 14 20 18 26 12 11 -10 105
7 105 19 0 15 -28 31 -35 20 -11 -18 -25 -11 -25 13 0 13 -5 28 -12 35 -9 9
-8 15 8 27 16 13 17 16 4 25 -22 14 -33 12 -51 -13z m-13 -104 c-11 -11 -17 4
-9 23 7 18 8 18 11 1 2 -10 1 -21 -2 -24z"/>
<path d="M1095 291 c-3 -5 -1 -12 5 -16 14 -9 3 -25 -17 -25 -9 0 -13 3 -10 7
4 3 -2 13 -14 21 -11 8 -21 12 -22 11 -1 -2 -8 -14 -14 -26 -20 -35 -16 -54
10 -51 12 2 28 7 35 12 19 12 25 1 24 -39 -1 -37 14 -48 25 -17 3 9 19 30 36
45 22 21 27 31 18 40 -15 15 -14 27 4 27 8 0 15 5 15 10 0 13 -87 13 -95 1z"/>
</g>
</svg>
